<svg xmlns="http://www.w3.org/2000/svg" width="892" height="477" viewBox="0 0 892 477"><defs><style type="text/css"/></defs><g transform="translate(251.79304931352664 604.2415151589112) scale(1)"><g class="relationship"><g transform="translate(-197.79304931352664 -464.5546015263398) rotate(29.999999999999993)" stroke-width="5" stroke="#000000"><path d="M 59 0 L 376.0470478572947 0"/><polygon points="-24.8621506177483,0 -27.62461179749811,9.20820393249937 0,0 -27.62461179749811,-9.20820393249937" fill="#000000" transform="translate(400.90919847504296 0) rotate(0)" stroke="none"/></g><g transform="translate(-9.412151670605823 -355.7928395620162) rotate(29.999999999999993) translate(0 -50.2)"><g transform="translate(0 0)"><g transform="translate(-44.55078125 0)" fill="#ffffff" stroke="#000000" stroke-width="0"><rect x="0" y="0" width="89.1015625" height="26" rx="5" ry="5" stroke="none"/><text xml:space="preserve" x="5" y="17.5" stroke="none" text-anchor="left" font-family="sans-serif" font-size="16" font-weight="normal" fill="#000000">WATCHED</text></g></g><g transform="translate(0 26)"><g transform="translate(-33.3515625 0)" fill="white"><rect x="0" y="0" width="66.703125" height="19.2" rx="0" ry="0" stroke="none"/><g font-family="sans-serif" font-size="16" font-weight="normal" fill="#000000" text-anchor="end"><text xml:space="preserve" x="48.9140625" y="14.1" stroke="none">rating:</text><text xml:space="preserve" x="53.359375" y="14.1" stroke="none" text-anchor="start">5</text></g></g></g></g></g><g class="relationship"><g transform="translate(370.889244656998 -396.35102362407486) rotate(-35.63975274292593)" stroke-width="5" stroke="#000000"><path d="M 59 0 L 180.24276126785873 0"/><polygon points="-24.8621506177483,0 -27.62461179749811,9.20820393249937 0,0 -27.62461179749811,-9.20820393249937" fill="#000000" transform="translate(205.104911885607 0) rotate(0)" stroke="none"/></g><g transform="translate(468.1051434352501 -466.0528437545711) rotate(-35.63975274292593) translate(0 -31)"><g transform="translate(0 0)"><g transform="translate(-44.5625 0)" fill="#ffffff" stroke="#000000" stroke-width="0"><rect x="0" y="0" width="89.125" height="26" rx="5" ry="5" stroke="none"/><text xml:space="preserve" x="5" y="17.5" stroke="none" text-anchor="left" font-family="sans-serif" font-size="16" font-weight="normal" fill="#000000">ACTED_IN</text></g></g></g></g><g class="relationship"><g transform="translate(-197.79304931352664 -464.5546015263398) rotate(-6.242734411009395)" stroke-width="5" stroke="#000000"><path d="M 59 0 L 704.1300149418897 0"/><polygon points="-24.8621506177483,0 -27.62461179749811,9.20820393249937 0,0 -27.62461179749811,-9.20820393249937" fill="#000000" transform="translate(728.992165559638 0) rotate(0)" stroke="none"/></g><g transform="translate(181.50932935354916 -506.0462930295846) rotate(-6.242734411009395) translate(0 -50.2)"><g transform="translate(0 0)"><g transform="translate(-44.55078125 0)" fill="#ffffff" stroke="#000000" stroke-width="0"><rect x="0" y="0" width="89.1015625" height="26" rx="5" ry="5" stroke="none"/><text xml:space="preserve" x="5" y="17.5" stroke="none" text-anchor="left" font-family="sans-serif" font-size="16" font-weight="normal" fill="#000000">WATCHED</text></g></g><g transform="translate(0 26)"><g transform="translate(-40.0234375 0)" fill="white"><rect x="0" y="0" width="80.046875" height="19.2" rx="0" ry="0" stroke="none"/><g font-family="sans-serif" font-size="16" font-weight="normal" fill="#000000" text-anchor="end"><text xml:space="preserve" x="48.9140625" y="14.1" stroke="none">rating:</text><text xml:space="preserve" x="53.359375" y="14.1" stroke="none" text-anchor="start">4,5</text></g></g></g></g></g><g class="relationship"><g transform="translate(370.889244656998 -396.35102362407486) rotate(45.00000000000001)" stroke-width="5" stroke="#000000"><path d="M 58.695178092152055 -5.989663490593891 L 95.96898050729243 -9.793341079425122 A 40 40 0 0 1 100.02976931447472 -10 L 151.7714088642369 -10 L 203.5130484139991 -10 A 40 40 0 0 1 207.57383722118138 -9.79334107942512 L 220.11393864881927 -8.51366206436971 L 220.11393864881927 -8.51366206436971"/><polygon points="-24.8621506177483,0 -27.62461179749811,9.20820393249937 0,0 -27.62461179749811,-9.20820393249937" fill="#000000" transform="translate(303.5428177284738 0) rotate(5.826689442008371) translate(-59 0)" stroke="none"/></g><g transform="translate(485.2789048670015 -296.10349903780235) rotate(45.00000000000001) translate(0 -50.2)"><g transform="translate(0 0)"><g transform="translate(-44.55078125 0)" fill="#ffffff" stroke="#000000" stroke-width="0"><rect x="0" y="0" width="89.1015625" height="26" rx="5" ry="5" stroke="none"/><text xml:space="preserve" x="5" y="17.5" stroke="none" text-anchor="left" font-family="sans-serif" font-size="16" font-weight="normal" fill="#000000">WATCHED</text></g></g><g transform="translate(0 26)"><g transform="translate(-40.0234375 0)" fill="white"><rect x="0" y="0" width="80.046875" height="19.2" rx="0" ry="0" stroke="none"/><g font-family="sans-serif" font-size="16" font-weight="normal" fill="#000000" text-anchor="end"><text xml:space="preserve" x="48.9140625" y="14.1" stroke="none">rating:</text><text xml:space="preserve" x="53.359375" y="14.1" stroke="none" text-anchor="start">4,8</text></g></g></g></g></g><g class="relationship"><g transform="translate(370.889244656998 -396.35102362407486) rotate(45.00000000000001)" stroke-width="5" stroke="#000000"><path d="M 58.695178092152055 5.989663490593891 L 95.96898050729243 9.793341079425122 A 40 40 0 0 0 100.02976931447472 10 L 151.7714088642369 10 L 203.5130484139991 10 A 40 40 0 0 0 207.57383722118138 9.79334107942512 L 220.11393864881927 8.51366206436971 L 220.11393864881927 8.51366206436971"/><polygon points="-24.8621506177483,0 -27.62461179749811,9.20820393249937 0,0 -27.62461179749811,-9.20820393249937" fill="#000000" transform="translate(303.5428177284738 0) rotate(-5.826689442008371) translate(-59 0)" stroke="none"/></g><g transform="translate(471.1367692432705 -281.9613634140714) rotate(45.00000000000001) translate(0 5)"><g transform="translate(0 0)"><g transform="translate(-44.5625 0)" fill="#ffffff" stroke="#000000" stroke-width="0"><rect x="0" y="0" width="89.125" height="26" rx="5" ry="5" stroke="none"/><text xml:space="preserve" x="5" y="17.5" stroke="none" text-anchor="left" font-family="sans-serif" font-size="16" font-weight="normal" fill="#000000">ACTED_IN</text></g></g></g></g><g class="relationship"><g transform="translate(370.889244656998 -396.35102362407486) rotate(136.48979886853118)" stroke-width="5" stroke="#000000"><path d="M 59 0 L 151.07589993554313 0"/><polygon points="-24.8621506177483,0 -27.62461179749811,9.20820393249937 0,0 -27.62461179749811,-9.20820393249937" fill="#000000" transform="translate(175.93805055329145 0) rotate(0)" stroke="none"/></g><g transform="translate(294.7102821041932 -324.03410583984925) rotate(316.4897988685312) translate(0 -31)"><g transform="translate(0 0)"><g transform="translate(-44.5625 0)" fill="#ffffff" stroke="#000000" stroke-width="0"><rect x="0" y="0" width="89.125" height="26" rx="5" ry="5" stroke="none"/><text xml:space="preserve" x="5" y="17.5" stroke="none" text-anchor="left" font-family="sans-serif" font-size="16" font-weight="normal" fill="#000000">ACTED_IN</text></g></g></g></g><g class="relationship"><g transform="translate(370.889244656998 -396.35102362407486) rotate(-173.16103037395627)" stroke-width="5" stroke="#000000"><path d="M 59 0 L 488.89545912152744 0"/><polygon points="-24.8621506177483,0 -27.62461179749811,9.20820393249937 0,0 -27.62461179749811,-9.20820393249937" fill="#000000" transform="translate(513.7576097392757 0) rotate(0)" stroke="none"/></g><g transform="translate(98.89072272457247 -428.9725287713419) rotate(6.8389696260437445) translate(0 -31)"><g transform="translate(0 0)"><g transform="translate(-40.11328125 0)" fill="#ffffff" stroke="#000000" stroke-width="0"><rect x="0" y="0" width="80.2265625" height="26" rx="5" ry="5" stroke="none"/><text xml:space="preserve" x="5" y="17.5" stroke="none" text-anchor="left" font-family="sans-serif" font-size="16" font-weight="normal" fill="#000000">FRIENDS</text></g></g></g></g><g class="node"><g fill="#ffffff" stroke="#000000" stroke-width="4"><circle cx="-197.79304931352664" cy="-464.5546015263398" r="52"/></g><g transform="translate(-197.79304931352664 -464.5546015263398)"><g transform="scale(0.35764557190479346) translate(0 -89)"><g transform="translate(0 0)"><g fill="#000000" font-family="sans-serif" font-size="50" font-weight="normal" text-anchor="middle"><text xml:space="preserve" x="0" y="43" stroke="none">Chloë</text><text xml:space="preserve" x="0" y="103" stroke="none" text-anchor="middle">Sevigny</text></g></g><g transform="translate(0 124)"><g transform="translate(-69.2265625 0)"><g fill="#ffffff" stroke="#000000" stroke-width="4"><rect x="0" y="0" width="138.453125" height="54" rx="27" ry="27"/><text xml:space="preserve" x="27" y="37.5" stroke="none" font-family="sans-serif" font-size="40" font-weight="normal" fill="#000000">User</text></g></g></g></g></g></g><g class="node"><g fill="#ffffff" stroke="#000000" stroke-width="4"><circle cx="200.5" cy="-234.60000228881836" r="52"/></g><g transform="translate(200.5 -234.60000228881836)"><g transform="scale(0.26332037770706784) translate(0 -149)"><g transform="translate(0 0)"><g fill="#000000" font-family="sans-serif" font-size="50" font-weight="normal" text-anchor="middle"><text xml:space="preserve" x="0" y="43" stroke="none">Orange</text><text xml:space="preserve" x="0" y="103" stroke="none" text-anchor="middle">is The</text><text xml:space="preserve" x="0" y="163" stroke="none" text-anchor="middle">New</text><text xml:space="preserve" x="0" y="223" stroke="none" text-anchor="middle">Black</text></g></g><g transform="translate(0 244)"><g transform="translate(-83.689453125 0)"><g fill="#ffffff" stroke="#000000" stroke-width="4"><rect x="0" y="0" width="167.37890625" height="54" rx="27" ry="27"/><text xml:space="preserve" x="27" y="37.5" stroke="none" font-family="sans-serif" font-size="40" font-weight="normal" fill="#000000">Series</text></g></g></g></g></g></g><g class="node"><g fill="#ffffff" stroke="#000000" stroke-width="4"><circle cx="370.889244656998" cy="-396.35102362407486" r="52"/></g><g transform="translate(370.889244656998 -396.35102362407486)"><g transform="scale(0.299372329542537) translate(0 -118)"><g transform="translate(0 0)"><g fill="#000000" font-family="sans-serif" font-size="50" font-weight="normal" text-anchor="middle"><text xml:space="preserve" x="0" y="43" stroke="none">Natasha</text><text xml:space="preserve" x="0" y="103" stroke="none" text-anchor="middle">Lyonne</text></g></g><g transform="translate(0 124)"><g transform="translate(-67 0)"><g fill="#ffffff" stroke="#000000" stroke-width="4"><rect x="0" y="0" width="134" height="54" rx="27" ry="27"/><text xml:space="preserve" x="27" y="37.5" stroke="none" font-family="sans-serif" font-size="40" font-weight="normal" fill="#000000">Atriz</text></g></g><g transform="translate(-69.2265625 62)"><g fill="#ffffff" stroke="#000000" stroke-width="4"><rect x="0" y="0" width="138.453125" height="54" rx="27" ry="27"/><text xml:space="preserve" x="27" y="37.5" stroke="none" font-family="sans-serif" font-size="40" font-weight="normal" fill="#000000">User</text></g></g></g></g></g></g><g class="node"><g fill="#ffffff" stroke="#000000" stroke-width="4"><circle cx="585.526429453274" cy="-550.2415151589112" r="52"/></g><g transform="translate(585.526429453274 -550.2415151589112)"><g transform="scale(0.2746213236487032) translate(0 -89)"><g transform="translate(0 0)"><g fill="#000000" font-family="sans-serif" font-size="50" font-weight="normal" text-anchor="middle"><text xml:space="preserve" x="0" y="43" stroke="none">But I'm</text><text xml:space="preserve" x="0" y="103" stroke="none" text-anchor="middle">Cheerlander</text></g></g><g transform="translate(0 124)"><g transform="translate(-75.88671875 0)"><g fill="#ffffff" stroke="#000000" stroke-width="4"><rect x="0" y="0" width="151.7734375" height="54" rx="27" ry="27"/><text xml:space="preserve" x="27" y="37.5" stroke="none" font-family="sans-serif" font-size="40" font-weight="normal" fill="#000000">Filme</text></g></g></g></g></g></g><g class="node"><g fill="#ffffff" stroke="#000000" stroke-width="4"><circle cx="585.526429453274" cy="-181.71383882779887" r="52"/></g><g transform="translate(585.526429453274 -181.71383882779887)"><g transform="scale(0.3548848372385984) translate(0 -89)"><g transform="translate(0 0)"><g fill="#000000" font-family="sans-serif" font-size="50" font-weight="normal" text-anchor="middle"><text xml:space="preserve" x="0" y="43" stroke="none">Russian</text><text xml:space="preserve" x="0" y="103" stroke="none" text-anchor="middle">Doll</text></g></g><g transform="translate(0 124)"><g transform="translate(-83.689453125 0)"><g fill="#ffffff" stroke="#000000" stroke-width="4"><rect x="0" y="0" width="167.37890625" height="54" rx="27" ry="27"/><text xml:space="preserve" x="27" y="37.5" stroke="none" font-family="sans-serif" font-size="40" font-weight="normal" fill="#000000">Series</text></g></g></g></g></g></g></g></svg>